<?xml version="1.0"?>
<svg xmlns="http://www.w3.org/2000/svg" xmlns:xlink="http://www.w3.org/1999/xlink" xmlns:svgjs="http://svgjs.com/svgjs" version="1.1" width="512" height="512" x="0" y="0" viewBox="0 0 512 512" style="enable-background:new 0 0 512 512" xml:space="preserve" class=""><g>
<g xmlns="http://www.w3.org/2000/svg">
	<g>
		<path d="M466.07,191.766c27.604-36.851,27.575-87.714,0.375-124.769l40.996-39.164c5.944-5.768,6.09-17.253,0.352-23.196    c-5.768-5.943-15.255-6.09-21.198-0.352l-41.284,41.436c-36.559-27.249-89.877-28.163-126.134-0.876l-30.42-31.42    c-17.509-17.509-46.085-17.509-63.594,0L13.154,226.432c-17.538,17.538-17.538,46.056,0,63.594l37.096,37.125    c-13.454,37.829-4.245,80.517,24.375,109.152c28.649,28.664,71.426,37.799,109.166,24.389l37.125,38.096    c17.509,17.509,46.085,17.509,63.594,0L498.519,285.78c8.491-8.462,13.176-19.734,13.176-31.768    c0-12.005-4.685-23.336-13.176-31.827L466.07,191.766z M266.856,140.88c5.855-5.855,15.343-5.855,21.198,0l21.198,21.227    c5.855,5.855,5.855,15.343,0,21.198s-15.343,5.855-21.198,0l-21.198-21.227C261,156.221,261,146.735,266.856,140.88z     M203.261,77.286c5.855-5.855,15.343-5.855,21.198,0l21.198,21.198c5.855,5.855,5.855,15.343,0,21.198s-15.343,5.855-21.198,0    l-21.198-21.198C197.406,92.628,197.406,83.141,203.261,77.286z M180.629,181.929c17.567-17.567,46.085-17.567,63.594,0    c17.637,17.576,17.534,46.06,0,63.594c-17.509,17.509-46.085,17.509-63.594,0C163.095,227.989,162.992,199.505,180.629,181.929z     M265.421,393.908c-17.509,17.509-46.085,17.509-63.594,0c-17.538-17.538-17.538-46.056,0-63.594    c17.509-17.509,46.085-17.509,63.594,0C282.959,347.852,282.959,376.371,265.421,393.908z M320.114,292.222L129.303,313.42    c-8.675,0.867-15.696-5.354-16.572-13.234c-0.907-8.257,5.021-15.664,13.234-16.572l190.811-21.198    c8.491-0.82,15.664,5.036,16.572,13.234C334.255,283.907,328.341,291.315,320.114,292.222z M372.846,246.899    c-5.855,5.855-15.343,5.855-21.198,0l-21.198-21.198c-5.855-5.855-5.855-15.343,0-21.198c5.855-5.855,15.343-5.855,21.198,0    l21.198,21.198C378.701,231.556,378.701,241.043,372.846,246.899z M350.535,160.702c-17.538-17.538-17.538-46.056,0-63.594    c17.509-17.509,46.085-17.509,63.594,0c17.538,17.538,17.538,46.056,0,63.594C396.62,178.21,368.044,178.21,350.535,160.702z     M436.469,310.493c-5.855,5.855-15.343,5.855-21.198,0l-21.198-21.198c-5.855-5.855-5.855-15.343,0-21.198    c5.855-5.855,15.343-5.855,21.198,0l21.198,21.198C442.324,295.151,442.324,304.637,436.469,310.493z" fill="#2c4927" data-original="#000000" style="" class=""/>
	</g>
</g>
<g xmlns="http://www.w3.org/2000/svg">
	<g>
		<circle cx="233.627" cy="362.109" r="14.989" fill="#2c4927" data-original="#000000" style="" class=""/>
	</g>
</g>
<g xmlns="http://www.w3.org/2000/svg">
	<g>
		<circle cx="382.336" cy="128.901" r="14.989" fill="#2c4927" data-original="#000000" style="" class=""/>
	</g>
</g>
<g xmlns="http://www.w3.org/2000/svg">
	<g>
		<path d="M223.025,203.127c-5.855-5.855-15.343-5.855-21.198,0c-5.94,5.94-5.791,15.407,0,21.198    c5.855,5.855,15.342,5.855,21.198,0C228.817,218.533,228.966,209.067,223.025,203.127z" fill="#2c4927" data-original="#000000" style="" class=""/>
	</g>
</g>
<g xmlns="http://www.w3.org/2000/svg">
</g>
<g xmlns="http://www.w3.org/2000/svg">
</g>
<g xmlns="http://www.w3.org/2000/svg">
</g>
<g xmlns="http://www.w3.org/2000/svg">
</g>
<g xmlns="http://www.w3.org/2000/svg">
</g>
<g xmlns="http://www.w3.org/2000/svg">
</g>
<g xmlns="http://www.w3.org/2000/svg">
</g>
<g xmlns="http://www.w3.org/2000/svg">
</g>
<g xmlns="http://www.w3.org/2000/svg">
</g>
<g xmlns="http://www.w3.org/2000/svg">
</g>
<g xmlns="http://www.w3.org/2000/svg">
</g>
<g xmlns="http://www.w3.org/2000/svg">
</g>
<g xmlns="http://www.w3.org/2000/svg">
</g>
<g xmlns="http://www.w3.org/2000/svg">
</g>
<g xmlns="http://www.w3.org/2000/svg">
</g>
</g></svg>
